<?xml version="1.0" encoding="utf-8"?>
<!-- Generator: Adobe Illustrator 16.0.4, SVG Export Plug-In . SVG Version: 6.00 Build 0)  -->
<!DOCTYPE svg PUBLIC "-//W3C//DTD SVG 1.1//EN" "http://www.w3.org/Graphics/SVG/1.1/DTD/svg11.dtd">
<svg version="1.1" id="Layer_1" xmlns="http://www.w3.org/2000/svg" xmlns:xlink="http://www.w3.org/1999/xlink" x="0px" y="0px"
	 width="149.987px" height="93.733px" viewBox="0 0 149.987 93.733" enable-background="new 0 0 149.987 93.733"
	 xml:space="preserve">
<g>
	<path fill-rule="evenodd" clip-rule="evenodd" d="M38.963,36.215c-0.688,2.629-1.828,3.359-4.622,2.869
		c-10.484-1.84-19.247,1.587-25.467,10.235c-6.039,8.396-6.658,17.625-1.78,26.741c4.972,9.295,13.14,13.821,23.67,13.574
		c12.778-0.299,23.641-10.865,24.363-23.633c-1.801,0-3.591,0-5.38,0c-4.849,0-9.699-0.062-14.546,0.048
		c-1.119,0.025-2.205,0.753-3.342,0.95c-1.3,0.227-2.911,0.711-3.886,0.174c-0.961-0.529-1.843-2.241-1.751-3.352
		c0.092-1.106,1.376-2.162,2.247-3.144c0.708-0.799,1.839-1.307,2.338-2.194c6.994-12.454,13.944-24.932,20.786-37.47
		c0.575-1.054,0.603-2.642,0.342-3.867c-0.525-2.468-1.423-4.855-2.233-7.491c-5.155,2.109-7.964-1.858-11.288-4.283
		c-0.638-0.465-0.801-2.127-0.551-3.071c0.16-0.606,1.469-1.277,2.272-1.288c6.646-0.094,13.294-0.079,19.941,0.011
		c0.877,0.013,2.01,0.402,2.562,1.025c1.062,1.198,0.119,2.757-1.674,3.105c-2.383,0.462-4.759,0.96-7.544,1.526
		c1.362,4.339,2.545,8.23,3.85,12.08c0.136,0.402,0.991,0.795,1.513,0.797c14.375,0.043,28.75,0.034,43.521,0.034
		c-0.956-3.194-1.835-6.14-2.716-9.084c-0.994-3.313-0.344-4.246,3.049-4.252c5.754-0.011,11.509-0.081,17.259,0.054
		c4.673,0.109,8.25,3.748,8.459,8.293c0.22,4.754-2.969,8.828-7.609,9.329c-1.054,0.114-2.793-0.526-3.213-1.339
		c-0.827-1.601,0.17-2.674,2.018-3.044c3.131-0.626,4.605-2.462,4.256-5.001c-0.328-2.393-2.185-3.748-5.226-3.757
		c-4.67-0.016-9.34-0.004-14.312-0.004c1.795,5.918,3.446,11.577,5.227,17.194c3.22,10.164,6.465,20.319,9.84,30.43
		c0.441,1.322,1.864,2.286,2.553,3.566c0.524,0.974,1.112,2.421,0.739,3.228c-0.362,0.783-2.05,1.56-2.899,1.342
		c-0.86-0.222-1.621-1.578-2.034-2.596c-0.493-1.215-0.359-2.687-0.864-3.894c-2.593-6.19-5.303-12.332-7.976-18.499
		c-10.148,3.494-16.48,17.469-13.206,29.331c3.597,13.032,16.62,20.959,29.991,18.254c12.828-2.596,22.053-15.444,20.157-28.077
		c-2.16-14.395-13.805-23.552-28.732-22.344c-0.384-1.118-0.792-2.305-1.201-3.5c11.668-3.616,27.193,5.332,32.183,18.381
		c5.561,14.547-1.204,30.974-15.413,37.425c-14.188,6.442-30.982,0.77-38.41-12.919c-7.103-13.086-3.738-31.892,13.463-40.874
		c-0.892-2.891-1.8-5.837-2.809-9.105c-0.629,0.586-1.161,1.012-1.611,1.512c-9.25,10.25-18.506,20.493-27.691,30.799
		c-0.605,0.679-0.943,1.861-0.914,2.793c0.106,3.367-1.07,5.188-4.206,6.402c-0.7,0.271-1.503,1.009-1.708,1.696
		c-0.7,2.352-1.155,4.776-1.746,7.356c2.426,0.379,2.661,1.916,1.965,4.029c-2.42,0-4.925,0-7.598,0c0-1.127,0-2.219,0-3.466
		c2.349,0.346,2.931-1.14,3.238-2.983c0.202-1.211,0.536-2.402,0.826-3.598c1.197-4.927-0.674-7-6.08-6.499
		c-1.162,10.396-6.047,18.568-15.308,23.76c-7.3,4.093-15.085,4.859-23.102,2.401C4.77,87.375-3.957,69.965,1.75,54.153
		C7.218,39.005,24.978,30.426,38.963,36.215z M102.287,24.176c-14.686,0-28.924,0-43.206,0c0.037,0.412,0.017,0.666,0.085,0.893
		c3.252,10.658,6.494,21.318,9.79,31.963c0.666,2.15,1.695,2.192,3.457,0.252c9.323-10.273,18.643-20.548,27.958-30.827
		C100.957,25.809,101.496,25.12,102.287,24.176z M43.714,42.779c-3.646,6.63-7.147,12.997-10.861,19.748c1.247,0,2.034,0,2.822,0
		c8.463,0,16.926,0.002,25.389-0.001c3.215-0.001,4.419-1.697,3.449-4.853c-2.627-8.545-5.252-17.09-7.889-25.631
		c-0.784-2.539-1.603-5.068-2.543-8.038c-2.917,5.289-5.602,10.157-8.366,15.167c6.884,4.774,11.378,11.038,13.056,19.381
		c-1.461,0-2.672,0-3.998,0C53.03,52.03,49.623,46.697,43.714,42.779z"/>
	<path fill-rule="evenodd" clip-rule="evenodd" d="M71.092,48.851c-3.039-0.172-2.067-2.147-2.018-3.901c2.576,0,5.07,0,7.745,0
		c0,1.116,0,2.205,0,3.485c-2.23-0.191-3.426,0.755-3.587,3.099c-0.041,0.595-1.057,1.122-1.626,1.682
		c-0.322-0.793-0.759-1.562-0.924-2.387C70.581,50.319,70.893,49.727,71.092,48.851z"/>
</g>
</svg>
