<?xml version="1.0" encoding="utf-8"?>
<!-- Generator: Adobe Illustrator 16.0.0, SVG Export Plug-In . SVG Version: 6.00 Build 0)  -->
<!DOCTYPE svg PUBLIC "-//W3C//DTD SVG 1.1//EN" "http://www.w3.org/Graphics/SVG/1.1/DTD/svg11.dtd">
<svg version="1.1" id="Layer_1" xmlns="http://www.w3.org/2000/svg" xmlns:xlink="http://www.w3.org/1999/xlink" x="0px" y="0px"
	 width="40px" height="40px" viewBox="0 0 40 40" enable-background="new 0 0 40 40" xml:space="preserve">
<path fill="#3A0F01" stroke="#3A0F01" stroke-width="0.4274" stroke-linecap="round" stroke-linejoin="round" stroke-miterlimit="10" d="
	M14.784,28.855c-0.698,0.721-1.85,0.74-2.571,0.043l0,0c-0.721-0.697-0.739-1.852-0.041-2.571l13.044-13.472
	c0.699-0.721,1.849-0.74,2.57-0.041l0,0c0.721,0.698,0.739,1.849,0.042,2.57L14.784,28.855z"/>
<path fill="#3A0F01" stroke="#3A0F01" stroke-width="0.4274" stroke-linecap="round" stroke-linejoin="round" stroke-miterlimit="10" d="
	M25.217,28.855c0.697,0.721,1.849,0.74,2.57,0.043l0,0c0.721-0.697,0.739-1.852,0.041-2.571L14.784,12.854
	c-0.699-0.721-1.849-0.74-2.571-0.041l0,0c-0.72,0.699-0.74,1.849-0.041,2.57L25.217,28.855z"/>
</svg>
